<?xml version="1.0" encoding="UTF-8"?>
<svg width="51px" height="32px" viewBox="0 0 51 32" version="1.1" xmlns="http://www.w3.org/2000/svg" xmlns:xlink="http://www.w3.org/1999/xlink">
    <!-- Generator: Sketch 40.1 (33804) - http://www.bohemiancoding.com/sketch -->
    <title>Box</title>
    <desc>Created with Sketch.</desc>
    <defs></defs>
    <g id="Homepage" stroke="none" stroke-width="1" fill="none" fill-rule="evenodd">
        <g id="Box" fill="#282C36">
            <g transform="translate(0.000000, 3.000000)" id="Shape">
                <path d="M49.8309371,23.5857339 C50.4559634,24.3978052 50.3517924,25.5144033 49.518424,26.1234568 C48.5808846,26.7325103 47.435003,26.6310014 46.8099767,25.81893 L46.8099767,25.81893 L42.4347927,20.3374486 L38.1637798,25.81893 L38.1637798,25.81893 C37.5387535,26.6310014 36.2887009,26.7325103 35.4553325,26.1234568 C34.6219642,25.5144033 34.4136221,24.3978052 35.0386483,23.5857339 L35.0386483,23.5857339 L40.0388586,17.1906722 L35.0386483,10.8971193 L35.0386483,10.8971193 C34.4136221,10.085048 34.6219642,8.86694102 35.4553325,8.25788752 C36.2887009,7.64883402 37.5387535,7.85185185 38.1637798,8.66392318 L38.1637798,8.66392318 L42.4347927,14.1454047 L46.8099767,8.66392318 L46.8099767,8.66392318 C47.435003,7.85185185 48.5808846,7.64883402 49.518424,8.25788752 C50.3517924,8.86694102 50.4559634,10.085048 49.8309371,10.8971193 L49.8309371,10.8971193 L44.9348979,17.1906722 L49.8309371,23.5857339 L49.8309371,23.5857339 L49.8309371,23.5857339 L49.8309371,23.5857339 Z M27.0174777,22.7736626 C23.7881752,22.7736626 21.183899,20.3374486 21.183899,17.1906722 C21.183899,14.1454047 23.7881752,11.6076818 27.0174777,11.6076818 C30.2467801,11.6076818 32.8510563,14.1454047 32.8510563,17.1906722 C32.8510563,20.3374486 30.2467801,22.7736626 27.0174777,22.7736626 L27.0174777,22.7736626 L27.0174777,22.7736626 Z M9.82925478,22.7736626 C6.5999523,22.7736626 3.9956761,20.3374486 3.9956761,17.1906722 C3.9956761,14.1454047 6.5999523,11.6076818 9.82925478,11.6076818 C13.0585573,11.6076818 15.6628335,14.1454047 15.6628335,17.1906722 C15.6628335,20.3374486 13.0585573,22.7736626 9.82925478,22.7736626 L9.82925478,22.7736626 L9.82925478,22.7736626 Z M27.0174777,7.95336077 C23.371491,7.95336077 20.1421885,9.88203018 18.4754517,12.8257888 C16.808715,9.88203018 13.5794125,7.95336077 9.82925478,7.95336077 C7.64166277,7.95336077 5.66241287,8.66392318 3.9956761,9.78052126 L3.9956761,1.96433471 L3.9956761,1.96433471 C3.9956761,0.949245542 3.16230772,0.137174211 2.12059724,0.137174211 C0.974715715,0.137174211 0.141347332,0.949245542 0.141347332,1.96433471 L0.141347332,1.96433471 L0.141347332,17.39369 L0.141347332,17.39369 C0.24551838,22.4691358 4.51653134,26.5294925 9.82925478,26.5294925 C13.5794125,26.5294925 16.808715,24.4993141 18.4754517,21.5555556 C20.1421885,24.4993141 23.371491,26.5294925 27.0174777,26.5294925 C32.4343721,26.5294925 36.8095562,22.3676269 36.8095562,17.1906722 C36.8095562,12.1152263 32.4343721,7.95336077 27.0174777,7.95336077 L27.0174777,7.95336077 L27.0174777,7.95336077 Z"></path>
            </g>
        </g>
    </g>
</svg>