<?xml version="1.0" encoding="UTF-8"?>
<svg width="70px" height="32px" viewBox="0 0 70 32" version="1.1" xmlns="http://www.w3.org/2000/svg" xmlns:xlink="http://www.w3.org/1999/xlink">
    <!-- Generator: Sketch 40.3 (33839) - http://www.bohemiancoding.com/sketch -->
    <title>dannon</title>
    <desc>Created with Sketch.</desc>
    <defs>
        <polygon id="path-1" points="66.6744188 31.030303 0 31.030303 0 0.741139394 66.6744188 0.741139394"></polygon>
    </defs>
    <g id="Homepage" stroke="none" stroke-width="1" fill="none" fill-rule="evenodd">
        <g id="dannon">
            <g>
                <g id="Group-3" transform="translate(0.000000, 0.228945)">
                    <mask id="mask-2" fill="white">
                        <use xlink:href="#path-1"></use>
                    </mask>
                    <g id="Clip-2"></g>
                    <path d="M65.0431145,5.16004848 C64.9702884,5.13677576 64.8896942,5.11738182 64.8197812,5.10768485 C63.3953029,4.90986667 33.3375493,0.741139394 33.3375493,0.741139394 C33.3375493,0.741139394 3.27979565,4.90986667 1.85531739,5.10768485 C1.78443333,5.11738182 1.70481014,5.13677576 1.63198406,5.16004848 C0.726027536,5.44707879 0.0540855072,6.28004848 -0.000291304348,7.27689697 L-0.000291304348,17.7932606 L-0.000291304348,24.4938667 L-0.000291304348,24.4948364 C0.0414623188,25.2579879 0.446375362,25.9232 1.03966522,26.3217455 C1.22124493,26.4439273 1.41933188,26.5438061 1.63198406,26.6107152 C1.70481014,26.6349576 1.78443333,26.6543515 1.85531739,26.6640485 C2.36995507,26.7348364 6.62299855,27.3244121 11.8422014,28.0487758 C12.3393609,28.1001697 12.8598246,28.1379879 13.421071,28.1253818 C17.5469116,28.0439273 23.3195928,26.476897 29.966187,24.2718061 C37.4226072,21.7990788 51.7373029,20.7023515 57.5964043,23.2652606 C57.508042,23.3641697 57.3886072,23.4126545 57.2099406,23.4310788 C49.8933464,23.0955636 44.6119986,24.5268364 38.4994623,25.9939879 C34.2668101,27.0102303 30.8449551,28.5103515 26.1229116,30.0298667 C30.303129,30.6097455 33.3375493,31.0305939 33.3375493,31.0305939 L33.3375493,31.0305939 L33.3375493,31.0305939 C33.3375493,31.0305939 64.0934623,26.7639273 64.8197812,26.6640485 C64.8906652,26.6543515 64.9702884,26.6349576 65.0431145,26.6107152 C65.2557667,26.5438061 65.4528826,26.4439273 65.6344623,26.3217455 C66.2277522,25.9232 66.6336362,25.2579879 66.6744188,24.4948364 L66.6744188,24.4938667 L66.6744188,17.7932606 L66.6744188,7.27689697 C66.620042,6.28004848 65.9481,5.44707879 65.0431145,5.16004848" id="Fill-1" fill="#282C36" mask="url(#mask-2)"></path>
                </g>
                <path d="M31.021,19.6130909 L32.829029,19.6130909 L32.829029,9.28193939 L30.6947391,9.28193939 L30.6947391,14.518303 C29.3333768,12.4363636 26.2601159,9.26836364 24.8909855,9.28193939 L23.9442464,9.28193939 L23.9442464,19.6208485 L26.0882464,19.6169697 L26.0882464,12.6244848 C26.0882464,12.6244848 28.9634203,14.6792727 30.5636522,18.4581818 C30.5636522,18.4581818 30.8714638,19.2 31.021,19.6130909 L31.021,19.6130909 Z M41.2156812,19.6130909 L43.0237101,19.6130909 L43.0237101,9.28193939 L40.8903913,9.28193939 L40.8903913,14.518303 C39.53,12.4363636 36.4547971,9.26836364 35.0866377,9.28193939 L34.1398986,9.28193939 L34.1398986,19.6208485 L36.2848696,19.6169697 L36.2848696,12.6244848 C36.2848696,12.6244848 39.1590725,14.6792727 40.7593043,18.4581818 C40.7593043,18.4581818 41.0671159,19.2 41.2156812,19.6130909 L41.2156812,19.6130909 Z M61.2826667,14.518303 C59.9222754,12.4363636 56.8480435,9.26836364 55.4798841,9.28193939 L54.5331449,9.28193939 L54.5331449,19.6208485 L56.6771449,19.6169697 L56.6771449,12.6244848 C56.6771449,12.6244848 59.5513478,14.6792727 61.1535217,18.4581818 C61.1535217,18.4581818 61.4593913,19.2 61.6089275,19.6130909 L63.4179275,19.6130909 L63.4179275,9.28193939 L61.2826667,9.28193939 L61.2826667,14.518303 Z" id="Fill-4" fill="#FFFFFF"></path>
                <path d="M6.12904348,11.1249455 L6.12904348,17.5511273 C6.12904348,17.5511273 7.15152174,17.6267636 8.24488406,17.1283394 C9.47807246,16.5678545 10.8277826,15.1133091 10.6326087,13.1613091 C10.4102464,10.9174303 7.59721739,11.1249455 7.59721739,11.1249455 L6.12904348,11.1249455 Z M12.7882609,13.7683394 C12.7882609,13.7683394 12.6280435,19.6291879 5.42602899,19.6291879 L3.96368116,19.6291879 L3.96368116,9.29124848 L7.96523188,9.29124848 C7.96523188,9.29124848 12.9387681,8.88494545 12.7882609,13.7683394 L12.7882609,13.7683394 Z" id="Fill-6" fill="#FFFFFF"></path>
                <path d="M17.9752261,11.0520242 C15.4467043,11.0520242 15.3224145,15.1470545 15.3224145,15.1470545 L20.7979652,15.1470545 C20.7979652,15.1451152 20.5872551,11.0520242 17.9752261,11.0520242 L17.9752261,11.0520242 Z M15.223371,17.0069333 C15.089371,18.4740848 15.0971391,19.6173576 15.0971391,19.6173576 L12.9803275,19.6173576 C12.9803275,19.6173576 12.8948783,14.5332364 13.9639652,11.9596606 C15.0311101,9.38608485 16.8517623,9.00111515 18.0237768,9.00111515 C19.1967623,9.00111515 21.0183855,9.38608485 22.0845594,11.9596606 C23.1526754,14.5332364 23.0681971,19.6173576 23.0681971,19.6173576 L20.9766319,19.6173576 C20.9766319,19.6173576 20.985371,18.4740848 20.8504,17.0069333 L15.223371,17.0069333 Z" id="Fill-8" fill="#FFFFFF"></path>
                <path d="M48.7927986,17.7888 C51.9320884,17.7888 51.6737986,15.4886788 51.6737986,15.4886788 C51.6737986,15.4877091 51.6631174,12.9723152 49.9686971,11.4731636 C49.9686971,11.4731636 49.4035667,10.9330424 48.7830884,10.9330424 C48.1606681,10.9330424 47.5955377,11.4731636 47.5955377,11.4731636 C45.9020884,12.9723152 45.8914072,15.4886788 45.8914072,15.4886788 C45.8914072,15.4877091 45.6535087,17.7888 48.7927986,17.7888 M48.6626826,9.01013333 C48.6626826,9.01013333 51.702929,8.73667879 53.3303493,13.4755879 C53.3303493,13.4755879 55.5384362,19.8707394 48.6772478,19.8707394 C41.8189725,19.8707394 44.0251174,13.4755879 44.0251174,13.4755879 C45.6515667,8.73667879 48.6626826,9.01013333 48.6626826,9.01013333" id="Fill-10" fill="#FFFFFF"></path>
            </g>
        </g>
    </g>
</svg>