<?xml version="1.0" encoding="UTF-8"?>
<svg width="87px" height="32px" viewBox="0 0 87 32" version="1.1" xmlns="http://www.w3.org/2000/svg" xmlns:xlink="http://www.w3.org/1999/xlink">
    <!-- Generator: Sketch 40.1 (33804) - http://www.bohemiancoding.com/sketch -->
    <title>L'Oreal</title>
    <desc>Created with Sketch.</desc>
    <defs></defs>
    <g id="Homepage" stroke="none" stroke-width="1" fill="none" fill-rule="evenodd">
        <g id="L'Oreal" fill="#282C36">
            <g id="l'oreal" transform="translate(0.000000, 8.000000)">
                <g id="Layer_1">
                    <g id="Group">
                        <polygon id="Shape" points="11.8838298 13.6063143 11.8838298 15.5360571 0.385946809 15.5360571 0.385946809 2.26488571 2.45589894 2.26488571 2.45589894 13.6063143"></polygon>
                        <polygon id="Shape" points="10.2743298 7.09094286 12.5733511 2.5058 10.3890957 2.5058 8.66436702 7.09094286"></polygon>
                        <path d="M29.0723457,4.44331429 C28.3268298,3.21202857 27.2379415,2.17697143 25.955617,1.47171429 C24.6732926,0.765971429 23.1975319,0.390028571 21.722234,0.390028571 C20.2469362,0.390028571 18.7707128,0.765971429 17.4888511,1.47171429 C16.2065266,2.17697143 15.1171755,3.21202857 14.3716596,4.44331429 C13.6261436,5.67411429 13.2235372,7.10162857 13.2235372,8.52914286 C13.2235372,9.95617143 13.6261436,11.3836857 14.3716596,12.6144857 C15.1171755,13.8457714 16.2060638,14.8808286 17.4888511,15.5860857 C18.7711755,16.2918286 20.2469362,16.6677714 21.722234,16.6677714 C23.1975319,16.6677714 24.6732926,16.2923143 25.955617,15.5860857 C27.2379415,14.8808286 28.3268298,13.8457714 29.0723457,12.6144857 C29.8183245,11.3836857 30.2204681,9.95568571 30.2204681,8.52914286 C30.2204681,7.10211429 29.8183245,5.6746 29.0723457,4.44331429 L29.0723457,4.44331429 L29.0723457,4.44331429 L29.0723457,4.44331429 L29.0723457,4.44331429 Z M27.2832926,11.7790571 C26.7270479,12.7446571 25.9130426,13.5592 24.9523404,14.1153429 C23.9916383,14.671 22.8847021,14.9672857 21.7773032,14.9672857 C20.6699043,14.9672857 19.5629681,14.671 18.602266,14.1153429 C17.6420266,13.5592 16.8280213,12.7451429 16.2713138,11.7790571 C15.7146064,10.8129714 15.4156596,9.69582857 15.4156596,8.57868571 C15.4156596,7.46105714 15.7146064,6.34391429 16.2713138,5.37831429 C16.8280213,4.41271429 17.6415638,3.59817143 18.602266,3.04251429 C19.5629681,2.48637143 20.670367,2.19008571 21.7773032,2.19008571 C22.8842394,2.19008571 23.9916383,2.48637143 24.9523404,3.04251429 C25.9130426,3.59817143 26.7265851,4.41222857 27.2832926,5.37831429 C27.84,6.3444 28.1394096,7.46154286 28.1394096,8.57868571 C28.1389468,9.69582857 27.84,10.8134571 27.2832926,11.7790571 L27.2832926,11.7790571 L27.2832926,11.7790571 L27.2832926,11.7790571 L27.2832926,11.7790571 Z" id="Shape"></path>
                        <path d="M44.6541383,7.98805714 C44.2797606,8.85262857 43.5717287,9.35242857 43.0177979,9.65454286 C42.463867,9.95714286 42.0645,10.0620571 41.6623564,10.047 L41.6623564,10.047 L45.6865691,15.5365429 L43.3870851,15.5365429 L39.4952234,10.2281714 L34.4186809,10.2281714 L34.4186809,15.5365429 L32.3491915,15.5365429 L32.3491915,2.26488571 L40.6271489,2.26488571 L40.6271489,2.26488571 C41.4638298,2.26488571 42.3125426,2.4378 43.0612979,2.8798 C43.8100532,3.3218 44.4579255,3.99354286 44.7624255,4.94408571 C45.0664628,5.89414286 45.0275904,7.12348571 44.6541383,7.98805714 L44.6541383,7.98805714 L44.6541383,7.98805714 Z M42.3389202,7.89722857 C42.7748457,7.5106 43.0330691,6.8748 43.0103936,6.24434286 C42.9881809,5.6134 42.6850691,4.98877143 42.252383,4.60748571 C41.819234,4.22668571 41.265766,4.19511429 40.7423777,4.19511429 L40.7423777,4.19511429 L34.4186809,4.19511429 L34.4186809,8.29745714 L40.7423777,8.29745714 L40.7423777,8.29745714 C41.3013989,8.29745714 41.9029947,8.28434286 42.3389202,7.89722857 L42.3389202,7.89722857 L42.3389202,7.89722857 Z" id="Shape"></path>
                        <polygon id="Shape" points="56.609234 7.9356 56.609234 9.74488571 49.5955532 9.74488571 49.5955532 13.6063143 59.023484 13.6063143 59.023484 15.5360571 47.5256011 15.5360571 47.5256011 2.26488571 59.023484 2.26488571 59.023484 4.19511429 49.5955532 4.19511429 49.5955532 7.9356"></polygon>
                        <polygon id="Shape" points="56.724 0.213228571 53.6193032 0.213228571 52.3550266 1.90254286"></polygon>
                        <path d="M63.0773138,12.1579143 L61.437734,15.5360571 L59.3687074,15.5360571 L65.8067074,2.2644 L67.8766596,2.2644 L74.3155851,15.5360571 L72.245633,15.5360571 L70.6069787,12.1579143 L63.0773138,12.1579143 L63.0773138,12.1579143 L63.0773138,12.1579143 Z M66.8414521,4.39765714 L63.8959468,10.4690857 L69.7869574,10.4690857 L66.8414521,4.39765714 L66.8414521,4.39765714 L66.8414521,4.39765714 Z" id="Shape"></path>
                        <polygon id="Shape" points="86.8472872 13.6063143 86.8472872 15.5360571 75.3503298 15.5360571 75.3503298 2.26488571 77.4193564 2.26488571 77.4193564 13.6063143"></polygon>
                        <path d="M85.9513723,4.92805714 L85.9333245,4.61137143 L85.9333245,4.61137143 C85.9305479,4.55308571 85.9351755,4.4948 85.9125,4.42874286 C85.89075,4.36268571 85.8509521,4.29031429 85.8102287,4.2432 C85.7704309,4.19608571 85.7278564,4.17374286 85.6829681,4.16791429 C85.768117,4.13731429 85.8430851,4.07611429 85.8963032,3.98528571 C85.9504468,3.89445714 85.983766,3.77448571 85.9823777,3.64577143 C85.9809894,3.51705714 85.9435053,3.37911429 85.8782553,3.27711429 C85.7371117,3.06 85.4886064,3.02308571 85.2711064,3.03377143 L85.2711064,3.03377143 L84.3552926,3.03377143 L84.3552926,5.25105714 L84.7106968,5.25105714 L84.7106968,4.34034286 L85.2419521,4.34034286 L85.2419521,4.34034286 C85.2997979,4.34034286 85.396516,4.33208571 85.493234,4.41125714 C85.6214202,4.57008571 85.5645,4.77894286 85.5871755,4.95622857 C85.5890266,5.06211429 85.5987447,5.16217143 85.6403936,5.25105714 L85.6403936,5.25105714 L86.0397606,5.25105714 L86.0397606,5.18257143 L86.0397606,5.18257143 C85.9671064,5.151 85.9606277,5.04025714 85.9513723,4.92805714 L85.9513723,4.92805714 L85.9513723,4.92805714 L85.9513723,4.92805714 L85.9513723,4.92805714 Z M85.5122074,3.95128571 C85.4020691,4.02511429 85.2882287,4.0256 85.2095585,4.02414286 L85.2095585,4.02414286 L84.7079202,4.02414286 L84.7079202,3.349 L84.7079202,3.349 C84.9268085,3.35191429 85.1470851,3.33928571 85.3641223,3.35774286 C85.4492713,3.36891429 85.5483032,3.41942857 85.5982819,3.5326 C85.6440957,3.67928571 85.6459468,3.83665714 85.5122074,3.95128571 L85.5122074,3.95128571 L85.5122074,3.95128571 L85.5122074,3.95128571 L85.5122074,3.95128571 Z" id="Shape"></path>
                        <path d="M86.7241915,3.1994 C86.5687021,2.91671429 86.3410213,2.67774286 86.0716915,2.51454286 C85.8023617,2.35134286 85.491383,2.26391429 85.1804043,2.26391429 C84.8694255,2.26391429 84.5584468,2.35134286 84.289117,2.51454286 C84.0197872,2.67774286 83.7921064,2.91671429 83.636617,3.1994 C83.4811277,3.48208571 83.3969043,3.80848571 83.3969043,4.13488571 C83.3969043,4.46128571 83.4811277,4.78768571 83.636617,5.06988571 C83.7921064,5.35208571 84.0197872,5.59154286 84.289117,5.75474286 C84.5584468,5.91794286 84.8694255,6.00537143 85.1804043,6.00537143 C85.491383,6.00537143 85.8023617,5.91794286 86.0716915,5.75474286 C86.3410213,5.59154286 86.5687021,5.35257143 86.7241915,5.06988571 C86.8796809,4.7872 86.9639043,4.46128571 86.9639043,4.13488571 C86.9639043,3.80848571 86.8796809,3.48208571 86.7241915,3.1994 L86.7241915,3.1994 L86.7241915,3.1994 L86.7241915,3.1994 L86.7241915,3.1994 Z M86.5108564,4.94845714 C86.3780426,5.1884 86.1846064,5.39094286 85.956,5.52937143 C85.7273936,5.6678 85.4626915,5.74211429 85.1984521,5.74211429 C84.93375,5.74211429 84.6695106,5.6678 84.4409043,5.52937143 C84.2113723,5.39094286 84.0179362,5.18791429 83.8860479,4.94845714 C83.753234,4.70851429 83.6828936,4.43165714 83.6828936,4.1548 C83.6828936,3.87794286 83.753234,3.60108571 83.8860479,3.36114286 C84.0179362,3.1212 84.2113723,2.91865714 84.4409043,2.78022857 C84.6695106,2.6418 84.9332872,2.56748571 85.1984521,2.56748571 C85.4622287,2.56748571 85.7273936,2.64131429 85.956,2.78022857 C86.1846064,2.91865714 86.3780426,3.1212 86.5108564,3.36114286 C86.6427447,3.60108571 86.7135479,3.87794286 86.7135479,4.1548 C86.7135479,4.43165714 86.6432074,4.70851429 86.5108564,4.94845714 L86.5108564,4.94845714 L86.5108564,4.94845714 L86.5108564,4.94845714 L86.5108564,4.94845714 Z" id="Shape"></path>
                    </g>
                </g>
            </g>
        </g>
    </g>
</svg>