<?xml version="1.0" encoding="UTF-8"?>
<svg width="32px" height="32px" viewBox="0 0 32 32" version="1.1" xmlns="http://www.w3.org/2000/svg" xmlns:xlink="http://www.w3.org/1999/xlink">
    <!-- Generator: Sketch 40.1 (33804) - http://www.bohemiancoding.com/sketch -->
    <title>Pinterest</title>
    <desc>Created with Sketch.</desc>
    <defs></defs>
    <g id="Homepage" stroke="none" stroke-width="1" fill="none" fill-rule="evenodd">
        <g id="Pinterest" fill="#282C36">
            <g id="Fill-1">
                <path d="M16.0005248,3.55271368e-15 C7.16422784,3.55271368e-15 0,7.12295607 0,15.9096708 C0,22.4242713 3.93974801,28.0207719 9.57733954,30.4814464 C9.53232184,29.3704958 9.56929233,28.0368912 9.85584279,26.8281815 C10.1633859,25.5365565 11.9146442,18.1590559 11.9146442,18.1590559 C11.9146442,18.1590559 11.4033552,17.1433131 11.4033552,15.6417903 C11.4033552,13.2842093 12.7777944,11.5233874 14.4891665,11.5233874 C15.9445443,11.5233874 16.6476833,12.6103331 16.6476833,13.9118152 C16.6476833,15.3666039 15.7145575,17.5425827 15.2346409,19.5579491 C14.8337968,21.2455968 16.0856619,22.6221086 17.7600636,22.6221086 C20.7915271,22.6221086 22.8333011,18.7505965 22.8333011,14.1634606 C22.8333011,10.6766064 20.4713883,8.06668426 16.1755807,8.06668426 C11.3220668,8.06668426 8.29841716,11.6656772 8.29841716,15.6857412 C8.29841716,17.0717623 8.70940772,18.0493524 9.35318408,18.806144 C9.64918125,19.153809 9.69035028,19.2937795 9.58317085,19.6929331 C9.50643084,19.9856303 9.33020872,20.6903534 9.25720075,20.9697146 C9.15060445,21.3725791 8.82230184,21.5166084 8.45609572,21.3678245 C6.22060565,20.4603936 5.17936738,18.0261593 5.17936738,15.2897187 C5.17936738,10.7704226 9.01263571,5.35123338 16.6146781,5.35123338 C22.7234393,5.35123338 26.7440092,9.74667815 26.7440092,14.4649712 C26.7440092,20.7060087 23.2545548,25.3686383 18.110875,25.3686383 C16.3834085,25.3686383 14.7584563,24.4401016 14.2019163,23.3856263 C14.2019163,23.3856263 13.272989,27.0511834 13.0762407,27.7590376 C12.7370919,28.9857218 12.0730225,30.2115944 11.4658668,31.1671511 C12.9049169,31.5896138 14.4250221,31.8195736 16.0005248,31.8195736 C24.836122,31.8195736 32,24.6965016 32,15.9096708 C32,7.12295607 24.836122,3.55271368e-15 16.0005248,3.55271368e-15"></path>
            </g>
        </g>
    </g>
</svg>