<?xml version="1.0" encoding="UTF-8"?>
<svg width="86px" height="32px" viewBox="0 0 86 32" version="1.1" xmlns="http://www.w3.org/2000/svg" xmlns:xlink="http://www.w3.org/1999/xlink">
    <!-- Generator: Sketch 40.1 (33804) - http://www.bohemiancoding.com/sketch -->
    <title>Slack</title>
    <desc>Created with Sketch.</desc>
    <defs></defs>
    <g id="Homepage" stroke="none" stroke-width="1" fill="none" fill-rule="evenodd">
        <g id="Slack" fill="#282C36">
            <g id="slack" transform="translate(0.000000, 3.000000)">
                <g id="Layer_1">
                    <g id="Group">
                        <path d="M30.5848056,10.263738 C30.5848056,7.685406 32.4468176,5.885028 35.8306333,5.885028 C37.8953226,5.885028 39.5848176,6.550578 40.5001403,7.202556 C40.6311222,7.295646 40.8648216,7.521498 40.7247054,7.941534 C40.5451222,8.393934 40.2157715,9.074274 39.979487,9.516234 C39.8419559,9.773754 39.4907174,9.739824 39.3107896,9.647778 C38.6588096,9.31422 37.5894108,8.749938 36.6070461,8.645886 C36.3659359,8.620308 36.1125892,8.606388 35.8578637,8.613174 C34.9926934,8.632662 34.2698798,8.935944 34.0153267,9.602364 C33.9641403,9.734952 33.9365651,9.867366 33.9331182,9.99804 C33.9093347,10.876218 35.1198838,11.193768 36.5863647,11.448156 C39.3126854,11.919696 41.3753066,12.726708 41.3753066,15.559776 C41.3753066,17.965674 39.4814108,20.139978 35.7706573,20.073336 C33.3243968,20.023398 31.5888858,19.188894 30.6589138,18.379098 C30.6272024,18.351606 30.2732064,17.987598 30.4629579,17.549814 C30.6801122,16.986228 31.0466894,16.34034 31.3343327,15.997386 C31.4942685,15.777102 31.9163407,15.742128 32.1357355,15.879414 C32.9023246,16.36035 34.1638878,17.131518 35.6181323,17.182674 C35.7329138,17.186676 35.8466613,17.187372 35.9583407,17.184414 C37.2664369,17.152398 38.0578437,16.651626 38.0412986,15.808074 C38.0271663,15.06492 36.989996,14.63079 35.3384168,14.316546 C32.7043006,13.8156 30.5851503,12.938988 30.5851503,10.263738" id="Shape"></path>
                        <path d="M54.5153828,13.934964 C52.6578517,13.959498 50.9547415,14.472102 50.9056232,15.937704 C50.9051062,17.10072 51.8395591,17.671962 53.1511022,17.597142 C54.4092184,17.47482 55.3686613,16.923936 55.7914228,16.192962 C55.9477395,15.922044 55.971523,14.90832 55.9620441,14.47506 C55.9596313,14.38284 55.779014,14.208318 55.6999078,14.174736 C55.3052385,14.006826 55.0131142,13.954974 54.5152104,13.934616 L54.5153828,13.934964 Z M48.3345852,8.029404 C49.2032024,7.244664 50.9254429,6.023184 53.6702044,6.087564 C57.2923727,6.163602 59.2059158,7.878024 59.3841202,11.979204 C59.4575391,13.670484 59.3358637,18.387972 59.3069098,19.563342 C59.3026012,19.731948 59.2460721,19.848528 59.02099,19.852878 C58.424505,19.877064 57.0464369,19.867494 56.4132425,19.859142 C56.0937154,19.843482 56.0566613,19.683402 56.0525251,19.51584 C56.0497675,19.40622 56.0404609,19.081188 56.0337395,18.816186 C56.0301202,18.675594 55.8993106,18.679596 55.8658758,18.715614 C55.0162164,19.63155 53.6247054,20.073858 52.1449539,20.073858 C49.8958557,20.073858 47.6536513,18.73806 47.6605451,16.092738 C47.6674389,13.383558 49.5701242,12.047238 51.6603206,11.732124 C52.9987495,11.53098 54.5074549,11.709852 55.6499279,12.168168 C55.723002,12.197748 55.8722525,12.154944 55.8734589,12.05037 C55.8781122,11.705154 55.8615671,11.04726 55.7959038,10.735452 C55.6282124,9.940968 54.9717515,9.301692 53.5926493,9.129432 C53.3086253,9.09411 53.0227054,9.082452 52.7364409,9.10542 C51.6401563,9.19242 50.3208577,10.05546 49.7745251,10.378578 C49.6459559,10.454442 49.4446573,10.398936 49.379511,10.314198 C49.0606733,9.898338 48.2592705,8.682078 48.1961924,8.48772 C48.1331142,8.293884 48.2220441,8.130672 48.3342405,8.028708 L48.3345852,8.029404 L48.3345852,8.029404 Z" id="Shape"></path>
                        <path d="M60.5784689,13.07262 C60.5569259,9.29421 63.164501,6.106704 67.3986653,6.07869 C70.0407094,6.06129 71.9601122,7.27059 72.2985972,7.840962 C72.3673627,7.974942 72.3320321,8.086824 72.2844649,8.221674 C72.0607615,8.698434 71.4958156,9.61959 71.0932184,10.14159 C70.9217355,10.363962 70.7356032,10.173432 70.5193106,10.028142 C69.9190341,9.624462 68.7784569,9.130824 67.655976,9.130824 C65.6195511,9.131172 64.1030902,10.54092 64.11998,13.134564 C64.1358357,15.62346 65.5883567,16.991274 67.6630421,17.040864 C68.7476072,17.068356 69.7983928,16.438998 70.3636834,15.923436 C70.5411984,15.76701 70.7249178,15.84531 70.9277675,16.00539 C71.3258838,16.416204 71.8968617,17.050434 72.2134589,17.487 C72.4207896,17.729556 72.2656794,17.966892 72.1910541,18.062244 C71.3320882,19.159662 69.6730982,20.083254 67.4775992,20.095782 C62.880477,20.12832 60.600012,16.86495 60.5788136,13.073142" id="Shape"></path>
                        <path d="M82.5226012,19.925436 C82.7383768,19.90908 85.0410741,19.588224 85.7478597,19.424838 C85.9233066,19.38447 85.9856954,19.235526 85.8876313,19.087974 C85.4929619,18.490458 84.4552745,16.79361 83.3684689,15.27459 C82.3688697,13.877892 81.3153267,12.649452 80.9746012,12.176868 C80.8915311,12.062028 80.896012,11.948928 80.986493,11.85984 C81.6346814,11.21952 84.346008,8.53557 85.3654269,7.42719 C85.7600962,6.996018 85.5231222,6.810534 85.1879118,6.709788 C84.5404128,6.514908 83.4930741,6.272004 82.8974509,6.145158 C82.6463447,6.091566 82.3438798,6.110358 82.1243126,6.338298 C81.1050661,7.297908 77.9944168,10.449918 77.0658236,11.392128 C76.8986493,11.562126 76.8012745,11.524368 76.8004128,11.281464 C76.7928297,9.464904 76.7573267,1.687452 76.6930421,0.408204 C76.6885611,0.239076 76.4870902,0.110664 76.373515,0.104574 C75.7896112,0.073776 74.314513,0.064902 73.7331944,0.099354 C73.5703287,0.117972 73.4147014,0.285534 73.4005691,0.42717 C73.266485,2.472714 73.4574429,17.488566 73.5370661,19.589094 C73.5427535,19.740996 73.6547776,19.858794 73.7976513,19.86732 C74.3775912,19.90125 75.812016,19.898988 76.4817475,19.886286 C76.8112705,19.886286 76.8515992,19.65243 76.8515992,19.65243 L76.9012345,15.623112 C76.9012345,15.623112 76.9351864,15.443892 76.9901643,15.384732 C77.2262766,15.128082 77.8794629,14.421294 78.1579719,14.148114 C78.2248417,14.082516 78.3303166,14.087214 78.3985651,14.179956 C78.7294669,14.630616 79.6730541,16.095696 80.5477034,17.404176 C81.3513467,18.606168 82.1015631,19.672962 82.1539559,19.748304 C82.2749419,19.922304 82.4162645,19.929264 82.5227735,19.925958 L82.5227735,19.925436 L82.5226012,19.925436 Z" id="Shape"></path>
                        <path d="M43.3602004,19.911516 C43.5627054,19.918302 45.0991583,19.916562 45.7799198,19.915692 C46.0091383,19.920216 46.1282285,19.744998 46.1358116,19.590312 C46.2804088,16.645188 46.2185371,2.623224 46.1271944,0.409074 C46.1196112,0.217674 46.0384369,0.145812 45.909006,0.128412 C45.3247575,0.049416 43.6643888,0.06786 43.1321884,0.208452 C43.0280922,0.23577 42.9667375,0.315636 42.9634629,0.418296 C42.8331703,6.125496 42.9210661,19.283376 42.9486413,19.532544 C42.9760441,19.78206 43.1053026,19.902816 43.3605451,19.911516 L43.3602004,19.911516 L43.3602004,19.911516 Z" id="Shape"></path>
                        <g transform="translate(0.000000, 0.522000)" id="Shape">
                            <path d="M2.23996393,13.53372 C1.2931022,13.541028 0.49101002,12.971352 0.195266533,12.082212 C0.183891784,12.04776 0.174068136,12.014352 0.164589178,11.98077 C-0.157695391,10.842114 0.467226453,9.65091 1.58729459,9.269502 L19.552505,3.1929 C19.7708657,3.129738 19.9907776,3.097548 20.2086212,3.096156 C21.1806453,3.0885 22.0047976,3.670704 22.3077796,4.578636 L22.3346653,4.666332 C22.6707375,5.852316 21.8357275,6.910932 20.8352665,7.250232 C20.8345772,7.250754 20.6525812,7.312872 2.96967134,13.408266 C2.73062926,13.49022 2.48538277,13.531632 2.23996393,13.53372 L2.23996393,13.53372 L2.23996393,13.53372 Z"></path>
                            <path d="M5.23445291,22.45383 C4.28018036,22.46079 3.47533066,21.899118 3.18303407,21.02268 C3.17200401,20.989272 3.16149098,20.95569 3.15201202,20.921934 C2.82524649,19.769706 3.44947896,18.565974 4.57333868,18.184044 L22.5392385,12.051762 C22.7713868,11.973462 23.0111182,11.933442 23.2522285,11.93118 C24.2090862,11.923872 25.0497836,12.51408 25.3463888,13.400436 L25.3739639,13.492656 C25.547515,14.10531 25.4449699,14.793828 25.0999359,15.33723 C24.8427976,15.741258 24.0317435,16.096914 24.0317435,16.096914 L5.99759519,22.32246 C5.74631663,22.407198 5.49004008,22.451916 5.23445291,22.454178 L5.23445291,22.45383 L5.23445291,22.45383 Z"></path>
                            <path d="M20.1898357,22.492632 C19.2315992,22.500114 18.3831463,21.889722 18.0777515,20.97483 L12.0818798,2.99367 L12.0518918,2.89275 C11.727022,1.74609 12.3517715,0.550014 13.471495,0.168954 C13.6955431,0.092916 13.9271743,0.053244 14.1603567,0.051156 C14.5067695,0.048546 14.84198,0.127368 15.1577154,0.284838 C15.6856072,0.550188 16.0804489,1.006938 16.2691663,1.571046 L22.264521,19.55064 L22.2819279,19.608408 C22.6186894,20.798916 21.9953186,21.995688 20.8755952,22.376748 C20.6537876,22.451394 20.4228457,22.490544 20.1898357,22.492632 L20.1898357,22.492632 L20.1898357,22.492632 Z"></path>
                            <path d="M11.2773747,25.521276 C10.3191383,25.528758 9.46999599,24.918366 9.16442886,24.002256 L3.17010822,6.021792 C3.15976754,5.988732 3.14942685,5.955672 3.13943086,5.921742 C2.81542285,4.77543 3.43827655,3.57918 4.55765531,3.197772 C4.78084168,3.122952 5.01161122,3.083454 5.2444489,3.08154 C6.20285772,3.073884 7.05148297,3.684102 7.35687776,4.599342 L13.3513707,22.580502 C13.3625731,22.611822 13.3727415,22.646448 13.3818758,22.679508 C13.7065731,23.82669 13.0833747,25.023636 11.9622725,25.405044 C11.7396032,25.480038 11.5091784,25.519188 11.2766854,25.521102 L11.2773747,25.521102 L11.2773747,25.521276 Z"></path>
                            <polygon points="17.2339519 18.443304 21.4146894 17.000148 20.047996 12.902448 15.8624329 14.330466"></polygon>
                            <polygon points="8.33527856 21.5151 12.5156713 20.072118 11.1386373 15.943098 6.95410822 17.371638"></polygon>
                            <polygon points="14.2575591 9.5178 18.4386413 8.076558 17.087976 4.026708 12.8991383 5.44359"></polygon>
                            <polygon points="5.3578517 12.58542 9.53893387 11.144178 8.17172345 7.04265 3.98288577 8.459358 5.3578517 12.58542"></polygon>
                        </g>
                    </g>
                </g>
            </g>
        </g>
    </g>
</svg>