<?xml version="1.0" encoding="UTF-8"?>
<svg width="85px" height="32px" viewBox="0 0 85 32" version="1.1" xmlns="http://www.w3.org/2000/svg" xmlns:xlink="http://www.w3.org/1999/xlink">
    <!-- Generator: Sketch 40.1 (33804) - http://www.bohemiancoding.com/sketch -->
    <title>Spotify</title>
    <desc>Created with Sketch.</desc>
    <defs></defs>
    <g id="Homepage" stroke="none" stroke-width="1" fill="none" fill-rule="evenodd">
        <g id="Spotify" fill="#282C36">
            <g transform="translate(0.000000, 3.000000)" id="Shape">
                <path d="M34.6719048,12.130625 C37.3526429,12.7846875 38.4455,13.8003125 38.4455,15.6365625 C38.4455,17.8091875 36.7916429,19.2131875 34.2319286,19.2131875 C32.4226429,19.2131875 30.7453095,18.5680625 29.3820714,17.3464687 C29.3238273,17.2943151 29.3177172,17.2050318 29.3683095,17.145375 L30.572881,15.70725 C30.5977146,15.6775555 30.6333869,15.6591114 30.6718935,15.6560562 C30.7104002,15.653001 30.7485167,15.6655906 30.7776905,15.691 C31.9494762,16.7090625 32.997,17.1429375 34.2809048,17.1429375 C35.4373095,17.1429375 36.1557619,16.6404062 36.1557619,15.8327812 C36.1557619,15.1035625 35.800381,14.6960937 33.6948095,14.2094062 C31.2217143,13.6089687 29.7900714,12.8322187 29.7900714,10.6364375 C29.7900714,8.5889375 31.4495952,7.1589375 33.8247381,7.1589375 C35.4397381,7.1589375 36.8228095,7.639125 38.0504524,8.62753125 C38.1095476,8.67546875 38.1216905,8.76159375 38.0775714,8.82415625 L37.0029286,10.3435312 C36.9802277,10.3750688 36.9459421,10.3962278 36.9076571,10.4023271 C36.8693722,10.4084264 36.8302437,10.3989633 36.7989286,10.3760312 C35.7675952,9.60415625 34.7840238,9.22959375 33.7915476,9.22959375 C32.7683095,9.22959375 32.0802143,9.7231875 32.0802143,10.4564687 C32.0802143,11.2324062 32.4728333,11.6020937 34.6723095,12.1294062 L34.6719048,12.130625 Z M44.2364286,9.953125 C43.127381,9.953125 42.2174762,10.391875 41.4666429,11.2896875 L41.4666429,10.278125 C41.4666429,10.1982508 41.4021292,10.1335 41.3225476,10.1335 L39.3529762,10.1335 C39.2733946,10.1335 39.208881,10.1982508 39.208881,10.278125 L39.208881,21.5190625 C39.208881,21.5982813 39.2736429,21.6632813 39.3529762,21.6632813 L41.3229524,21.6632813 C41.4026905,21.6632813 41.4674524,21.5982813 41.4674524,21.5186563 L41.4674524,17.9700625 C42.217881,18.8150625 43.1281905,19.228625 44.2376429,19.228625 C46.2999048,19.228625 48.3864524,17.636125 48.3864524,14.590875 C48.3864524,11.545625 46.2986905,9.953125 44.2364286,9.953125 L44.2364286,9.953125 Z M46.0942857,14.5912812 C46.0942857,16.1415312 45.1430952,17.2237812 43.7806667,17.2237812 C42.4328095,17.2237812 41.4168571,16.092375 41.4168571,14.5912812 C41.4168571,13.0901875 42.4328095,11.9587812 43.7806667,11.9587812 C45.1212381,11.9587812 46.0946905,13.0658125 46.0946905,14.5912812 L46.0942857,14.5912812 Z M53.7349762,9.953125 C51.0797381,9.953125 49.0000714,12.0046875 49.0000714,14.625 C49.0000714,17.2160625 51.0651667,19.2460937 53.7017857,19.2460937 C56.3663333,19.2460937 58.4524762,17.2010312 58.4524762,14.5912812 C58.4524762,11.9904687 56.3800952,9.95271875 53.7345714,9.95271875 L53.7349762,9.953125 Z M53.7345714,17.239625 C52.3219524,17.239625 51.2574286,16.1009062 51.2574286,14.590875 C51.2574286,13.07475 52.2855238,11.974625 53.7021905,11.974625 C55.1229048,11.974625 56.1955238,13.1133437 56.1955238,14.6241875 C56.1955238,16.1395 55.1601429,17.2392187 53.7345714,17.2392187 L53.7345714,17.239625 Z M64.122381,10.1335 C64.202119,10.1335 64.2664762,10.1985 64.2664762,10.278125 L64.2664762,11.9774687 C64.2665837,12.0157883 64.2514925,12.0525753 64.2245336,12.0797095 C64.1975747,12.1068437 64.160965,12.1220939 64.1227857,12.1220937 L61.9552857,12.1220937 L61.9552857,16.209375 C61.9552857,16.8553125 62.2378095,17.1429375 62.8700476,17.1429375 C63.2723428,17.1451016 63.6691099,17.0488916 64.0260476,16.862625 C64.0709154,16.8403018 64.1240869,16.8428128 64.1666682,16.8692655 C64.2092494,16.8957183 64.2352041,16.9423631 64.2353095,16.992625 L64.2353095,18.6103125 C64.2353095,18.6619062 64.2069762,18.7106562 64.1624524,18.73625 C63.6099524,19.0502812 63.0238571,19.1965312 62.3167381,19.1965312 C60.5790952,19.1965312 59.6979286,18.295875 59.6979286,16.5185312 L59.6979286,12.1225 L58.7507857,12.1225 C58.7126766,12.1223924 58.6761709,12.1070947 58.6492996,12.0799722 C58.6224283,12.0528497 58.6073925,12.0161242 58.6075,11.977875 L58.6075,10.278125 C58.6075,10.1985 58.6714524,10.1335 58.7507857,10.1335 L59.6979286,10.1335 L59.6979286,7.908875 C59.6979286,7.82925 59.7626905,7.76425 59.8428333,7.76425 L61.8124048,7.76425 C61.8921429,7.76425 61.9565,7.82925 61.9565,7.908875 L61.9565,10.1335 L64.124,10.1335 L64.122381,10.1335 Z M75.0408333,10.1420312 C75.1003333,10.1420312 75.1541667,10.1785937 75.175619,10.2354687 L77.4766905,16.2617812 L79.5774048,10.2387187 C79.5976658,10.1804698 79.6523392,10.1413902 79.7138095,10.1412187 L81.7647381,10.1412187 C81.8124625,10.1411576 81.8571031,10.1648827 81.8838747,10.2045363 C81.9106463,10.2441899 81.916055,10.294597 81.8983095,10.3390625 L78.4805,19.2034375 C77.7721667,21.0327812 76.9675,21.7128437 75.5135952,21.7128437 C74.7356429,21.7128437 74.1062381,21.5511562 73.4088333,21.1725312 C73.3422525,21.1364229 73.3152721,21.0544713 73.3473095,20.9856562 L74.0151667,19.5150312 C74.031626,19.4784192 74.0623636,19.4502129 74.1001667,19.4370312 C74.1385029,19.4247686 74.1801639,19.4287299 74.2155238,19.448 C74.589119,19.6531562 74.954619,19.75675 75.3019048,19.75675 C75.7309524,19.75675 76.0454524,19.615375 76.3652143,18.9028125 L73.5480714,12.1225 L71.7084286,12.1225 L71.7084286,18.9048437 C71.7084286,18.984875 71.6436667,19.049875 71.5643333,19.049875 L69.5943571,19.049875 C69.5560705,19.0498752 69.5193578,19.0345822 69.4923231,19.0073718 C69.4652883,18.9801614 69.4501544,18.943271 69.4502619,18.9048437 L69.4502619,12.1225 L68.5039286,12.1225 C68.4243984,12.1218375 68.3600886,12.0572913 68.3594286,11.9774687 L68.3594286,10.27 C68.3594286,10.1899687 68.4241905,10.1249687 68.5035238,10.1249687 L69.4498571,10.1249687 L69.4498571,9.70653125 C69.4498571,7.76221875 70.4115714,6.73359375 72.231381,6.73359375 C72.9789762,6.73359375 73.4780476,6.8534375 73.8686429,6.96921875 C73.9301667,6.9883125 73.9710476,7.04478125 73.9710476,7.10815625 L73.9710476,8.77378125 C73.9716881,8.82051152 73.9496646,8.86464008 73.9119931,8.89210888 C73.8743216,8.91957769 73.8257005,8.92696083 73.781619,8.91190625 C73.4120714,8.78840625 73.0821905,8.70634375 72.6717619,8.70634375 C71.9836667,8.70634375 71.6760476,9.0650625 71.6760476,9.86903125 L71.6760476,10.1420312 L75.0404286,10.1420312 L75.0408333,10.1420312 Z M67.2969286,10.1335 C67.3762619,10.1335 67.4410238,10.1985 67.4410238,10.278125 L67.4410238,18.9044375 C67.4410238,18.9840625 67.3762619,19.0490625 67.2965238,19.0490625 L65.3265476,19.0490625 C65.2469003,19.0490628 65.1822707,18.9843774 65.1820476,18.9044375 L65.1820476,10.278125 C65.1820476,10.1985 65.2468095,10.1335 65.3261429,10.1335 L67.296119,10.1335 L67.2969286,10.1335 Z M66.3218571,6.205875 C67.1020251,6.205875 67.7344762,6.84065128 67.7344762,7.6236875 C67.7344762,8.40672372 67.1020251,9.0415 66.3218571,9.0415 C65.5416892,9.0415 64.9092381,8.40672372 64.9092381,7.6236875 C64.9092381,6.84065128 65.5416892,6.205875 66.3218571,6.205875 L66.3218571,6.205875 Z M83.5800952,12.9065625 C83.2119941,12.9079729 82.8585638,12.7618316 82.5982751,12.500586 C82.3379864,12.2393403 82.1923805,11.8846107 82.1937857,11.5151562 C82.1937857,11.1442303 82.3406234,10.7885025 82.6019849,10.5262563 C82.8633463,10.2640102 83.2178137,10.116736 83.587381,10.1168437 C83.9554074,10.1152162 84.3088406,10.2611759 84.5691531,10.5222929 C84.8294656,10.7834099 84.9750971,11.1380571 84.9736905,11.5074375 C84.9737978,11.8785085 84.8270334,12.2344243 84.5656836,12.4968873 C84.3043337,12.7593503 83.949807,12.906861 83.5800952,12.9069687 L83.5800952,12.9065625 Z M83.587381,10.255375 C82.8774286,10.255375 82.3399048,10.8220937 82.3399048,11.5155625 C82.3399048,12.2090312 82.873381,12.7680312 83.5800952,12.7680312 C84.2900476,12.7680312 84.8279762,12.2017187 84.8279762,11.5078437 C84.8279762,10.814375 84.2936905,10.255375 83.587381,10.255375 L83.587381,10.255375 Z M83.895,11.6508437 L84.2868095,12.2017187 L83.956119,12.2017187 L83.6039762,11.6963437 L83.3004048,11.6963437 L83.3004048,12.2017187 L83.0231429,12.2017187 L83.0231429,10.74125 L83.672381,10.74125 C84.0099524,10.74125 84.2325714,10.915125 84.2325714,11.2072187 C84.2325714,11.4469062 84.0949524,11.5931562 83.8945952,11.6500312 L83.895,11.6508437 Z M83.6598333,10.9919063 L83.2995952,10.9919063 L83.2995952,11.4534063 L83.6598333,11.4534063 C83.8403571,11.4534063 83.9472143,11.3648438 83.9472143,11.2218438 C83.9472143,11.0715313 83.8403571,10.9915 83.6598333,10.9915 L83.6598333,10.9919063 Z M12.7471667,0.3241875 C5.70997619,0.3241875 0.00526190476,6.1295 0.00526190476,13.1929687 C0.00485714286,19.829875 5.04090476,25.1875 11.4871429,26 L14.0071905,26 C20.4534286,25.1875 25.4894762,19.829875 25.4894762,13.1925625 C25.4894762,6.1295 19.7843571,0.3241875 12.7475714,0.3241875 L12.7471667,0.3241875 Z M18.5907143,18.770375 C18.4810966,18.9510739 18.3043381,19.0805609 18.0994531,19.1302556 C17.8945682,19.1799502 17.6784019,19.1457667 17.4986667,19.03525 C14.5062619,17.1998125 10.7403571,16.7854375 6.30497619,17.8022812 C6.09971153,17.8496451 5.88410635,17.8131412 5.70568089,17.7008152 C5.52725542,17.5884892 5.40065603,17.4095616 5.35378571,17.2034687 C5.30661827,16.9973355 5.34309824,16.7808368 5.45517783,16.6017342 C5.56725741,16.4226317 5.74572687,16.2956424 5.95121429,16.2487812 C10.805119,15.1356562 14.9685,15.6150312 18.3272143,17.6747187 C18.701106,17.9047033 18.8188267,18.3951312 18.5903095,18.7707812 L18.5907143,18.770375 Z M20.1498571,15.288 C19.8627859,15.7570495 19.2513684,15.9039656 18.7837857,15.61625 C15.3595,13.50375 10.1380714,12.8915312 6.08640476,14.126125 C5.56141564,14.2851461 5.00713868,13.9881906 4.84661905,13.4619062 C4.6887619,12.9337812 4.9842381,12.3784375 5.50921429,12.2187812 C10.1376667,10.8090937 15.8905476,11.4915937 19.823619,13.9169062 C20.2908065,14.2051684 20.4369961,14.8188041 20.1502619,15.288 L20.1498571,15.288 Z M20.2842381,11.6618125 C16.1767143,9.21375 9.40180952,8.9886875 5.48088095,10.1830625 C4.85093445,10.3746708 4.18550169,10.01745 3.99459526,9.38518749 C3.80368884,8.75292502 4.15960113,8.0850458 4.78954762,7.8934375 C9.2905,6.52234375 16.7729286,6.78721875 21.5013571,9.60375 C21.7732752,9.76558509 21.9699774,10.0292359 22.0481676,10.3366704 C22.1263579,10.6441049 22.0796274,10.9701243 21.9182619,11.2429687 C21.7570935,11.5160812 21.494332,11.7136575 21.1878938,11.792149 C20.8814557,11.8706405 20.5564968,11.8236037 20.2846429,11.6614062 L20.2842381,11.6618125 Z"></path>
            </g>
        </g>
    </g>
</svg>