<?xml version="1.0" encoding="UTF-8"?>
<svg width="60px" height="32px" viewBox="0 0 60 32" version="1.1" xmlns="http://www.w3.org/2000/svg" xmlns:xlink="http://www.w3.org/1999/xlink">
    <!-- Generator: Sketch 40.1 (33804) - http://www.bohemiancoding.com/sketch -->
    <title>Stripe</title>
    <desc>Created with Sketch.</desc>
    <defs>
        <polygon id="path-1" points="0.2 13.3333333 15.295 13.3333333 15.295 0.995166667 0.2 0.995166667 0.2 13.3333333"></polygon>
        <polygon id="path-3" points="4.875 4.251 4.875 0.0826666667 0.607666667 0.0826666667 0.607666667 4.251 4.875 4.251"></polygon>
        <polygon id="path-5" points="0 59.7805 24.875 59.7805 24.875 0.0005 0 0.0005"></polygon>
    </defs>
    <g id="Homepage" stroke="none" stroke-width="1" fill="none" fill-rule="evenodd">
        <g id="Stripe">
            <g transform="translate(30.500000, 16.500000) rotate(-90.000000) translate(-30.500000, -16.500000) translate(18.000000, -14.000000)">
                <g id="Group-3" transform="translate(4.333333, 46.447167)">
                    <mask id="mask-2" fill="white">
                        <use xlink:href="#path-1"></use>
                    </mask>
                    <g id="Clip-2"></g>
                    <path d="M9.26666667,5.13016667 C11.1433333,5.13016667 11.9233333,6.27516667 11.9233333,7.32183333 C11.9233333,8.33516667 11.1433333,9.41516667 9.26666667,9.41516667 L9.26666667,5.13016667 Z M7.68833333,13.3335 C11.94,13.3335 15.295,11.2735 15.295,7.3385 C15.295,3.38683333 11.94,0.995166667 7.72166667,0.995166667 C2.72333333,0.995166667 0.2,3.8185 0.2,7.87016667 C0.2,9.84683333 0.648333333,11.3401667 1.28,12.4701667 L4.6,12.4701667 C4.03666667,11.3401667 3.68666667,10.0451667 3.68666667,8.40183333 C3.68666667,6.79016667 4.25166667,5.36183333 6.21166667,5.18016667 L6.21166667,13.3001667 C6.42666667,13.3001667 7.29,13.3335 7.68833333,13.3335 L7.68833333,13.3335 Z" id="Fill-1" fill="#282C36" mask="url(#mask-2)"></path>
                </g>
                <path d="M8.18666667,40.0363333 C8.18666667,39.0563333 8.535,38.4746667 8.96666667,38.0763333 L15.1283333,38.0596667 C15.61,38.4913333 15.9416667,39.0896667 15.9416667,40.0363333 C15.9416667,41.548 14.2483333,42.593 12.0716667,42.593 C9.84666667,42.593 8.18666667,41.5646667 8.18666667,40.0363333 M19.6283333,41.033 C19.6283333,39.4046667 18.8633333,38.3596667 18.3333333,37.778 L19.3616667,37.5613333 L19.3616667,33.908 L3.55271368e-15,33.908 L0.88,38.0596667 L5.58,38.0763333 C5.14833333,38.6746667 4.53333333,39.5546667 4.53333333,41.0163333 C4.53333333,43.988 6.925,46.6946667 12.1883333,46.6946667 C17.005,46.678 19.6283333,43.938 19.6283333,41.033" id="Fill-4" fill="#282C36"></path>
                <g id="Group-8" transform="translate(20.000000, 28.113833)">
                    <mask id="mask-4" fill="white">
                        <use xlink:href="#path-3"></use>
                    </mask>
                    <g id="Clip-7"></g>
                    <polygon id="Fill-6" fill="#282C36" mask="url(#mask-4)" points="0.607666667 0.0826666667 1.50433333 4.251 4.876 4.251 3.996 0.0826666667"></polygon>
                </g>
                <mask id="mask-6" fill="white">
                    <use xlink:href="#path-5"></use>
                </mask>
                <g id="Clip-10"></g>
                <polygon id="Fill-9" fill="#282C36" mask="url(#mask-6)" points="4.815 32.3638333 19.345 32.3638333 19.345 28.1955 4.815 28.1955"></polygon>
                <path d="M18.1168333,23.7295 L19.3451667,23.4645 L19.3451667,19.8761667 L4.81516667,19.8761667 L4.81516667,24.0278333 L14.6635,24.0278333 C15.9418333,25.0078333 15.7085,26.6695 15.5268333,27.1828333 L19.3451667,27.1828333 C19.5451667,26.6528333 19.9101667,24.7095 18.1168333,23.7295" id="Fill-11" fill="#282C36" mask="url(#mask-6)"></path>
                <path d="M22.9491667,15.4266667 L22.0858333,11.375 L8.78416667,11.3583333 C6.3275,11.3583333 4.5175,13.2016667 4.5175,15.6583333 C4.5175,17.02 4.76583333,18.0166667 5.06416667,18.565 L8.43583333,18.565 C8.21916667,18.0333333 7.45583333,15.41 9.91416667,15.41 L15.8091667,15.41 L15.8091667,18.565 L19.3458333,18.565 L19.3458333,15.41 L22.9491667,15.4266667 Z" id="Fill-12" fill="#282C36" mask="url(#mask-6)"></path>
                <path d="M15.1278333,4.20116667 C15.7761667,4.20116667 16.0245,4.73283333 16.0245,5.61283333 C16.0245,6.8745 15.6428333,8.4695 14.9611667,9.73116667 L18.8645,9.73116667 C19.4128333,8.35283333 19.6278333,6.99116667 19.6278333,5.61283333 C19.6278333,2.24116667 17.8678333,-0.0005 14.9278333,-0.0005 C10.3461667,-0.0005 11.0761667,6.3095 9.0995,6.3095 C8.33616667,6.3095 8.08616667,5.64616667 8.08616667,4.71616667 C8.08616667,3.33783333 8.65116667,1.57783333 9.41616667,0.182833333 L5.46283333,0.182833333 C4.7995,1.72616667 4.51616667,3.28783333 4.51616667,4.71616667 C4.51616667,8.1695 6.22783333,10.5445 9.1995,10.5445 C14.1478333,10.5278333 13.2678333,4.20116667 15.1278333,4.20116667" id="Fill-13" fill="#282C36" mask="url(#mask-6)"></path>
            </g>
        </g>
    </g>
</svg>