<?xml version="1.0" encoding="UTF-8"?>
<svg width="66px" height="32px" viewBox="0 0 66 32" version="1.1" xmlns="http://www.w3.org/2000/svg" xmlns:xlink="http://www.w3.org/1999/xlink">
    <!-- Generator: Sketch 40.1 (33804) - http://www.bohemiancoding.com/sketch -->
    <title>Yelp</title>
    <desc>Created with Sketch.</desc>
    <defs></defs>
    <g id="Homepage" stroke="none" stroke-width="1" fill="none" fill-rule="evenodd">
        <g id="Yelp" fill="#282C36">
            <g transform="translate(0.000000, 1.000000)">
                <path d="M46.9282874,12.4905 C46.5149463,13.147 46.3419666,15.2165 46.4842726,16.5915 C46.5345574,17.0445 46.6170245,17.422 46.737708,17.6485 C46.9021393,17.9605 47.1797114,18.146 47.4960027,18.1565 C47.6981476,18.168 47.8243625,18.1335 51.6359501,16.915 C51.6359501,16.915 53.3300449,16.3775 53.3385934,16.3735 C53.7594771,16.2675 54.0445919,15.881 54.0722486,15.387 C54.0999052,14.8815 53.83591,14.4345 53.4029579,14.2735 L52.2071854,13.7895 C48.110483,12.1095 47.9274463,12.0425 47.7197701,12.0405 C47.4049872,12.0285 47.1228895,12.187 46.9282874,12.4905" id="Fill-3"></path>
                <path d="M56.091686,25.0085 C56.1585648,24.818 56.1661075,24.686 56.1766673,20.7035 C56.1766673,20.7035 56.1862214,18.945 56.1887357,18.9265 C56.2153866,18.4955 55.9353003,18.104 55.4746916,17.927 C55.0015116,17.7455 54.4926295,17.858 54.2060061,18.2115 C54.2060061,18.2115 53.3712785,19.198 53.3682614,19.198 C50.4964966,22.55 50.3778245,22.705 50.3089343,22.9035 C50.2651865,23.021 50.2480897,23.145 50.2626723,23.268 C50.2797691,23.447 50.3602248,23.6225 50.4954909,23.785 C51.1592502,24.5735 54.351832,25.7395 55.370602,25.568 C55.7261156,25.5025 55.9815623,25.3055 56.091686,25.0085" id="Fill-4"></path>
                <path d="M62.5638423,23.6225 C63.5267962,23.2425 65.6271922,20.5855 65.773521,19.564 C65.8248115,19.208 65.7136821,18.9025 65.4667837,18.707 C65.3048666,18.5865 65.181166,18.539 61.3725955,17.2965 C61.3725955,17.2965 59.7001231,16.7475 59.680512,16.736 C59.2767251,16.581 58.8151107,16.724 58.5033449,17.107 C58.1815222,17.4975 58.1322431,18.012 58.3891984,18.402 L59.0615062,19.49 C61.3233164,23.144 61.4962961,23.401 61.6597217,23.528 C61.9116485,23.7235 62.2319627,23.757 62.5638423,23.6225" id="Fill-5"></path>
                <path d="M60.5977067,14.221 C64.926725,13.178 65.0936705,13.123 65.2651417,13.013 C65.5281311,12.836 65.6588716,12.543 65.6362435,12.1845 C65.6362435,12.172 65.6387577,12.1605 65.6362435,12.1475 C65.5251141,11.092 63.6620623,8.3405 62.7443648,7.8945 C62.419525,7.74 62.0926738,7.7515 61.824153,7.9305 C61.6556989,8.0395 61.5345125,8.202 59.2168862,11.354 C59.2168862,11.354 58.1679453,12.7735 58.1548713,12.7875 C57.8798134,13.1215 57.8767963,13.6 58.1443115,14.0085 C58.4243978,14.4345 58.896572,14.642 59.3305298,14.523 C59.3305298,14.523 59.3119245,14.5525 59.306896,14.559 C59.5206064,14.478 59.9032737,14.3845 60.5977067,14.221" id="Fill-6"></path>
                <path d="M56.2495803,10.6665 L56.2495803,10.6665 C56.1751588,8.9605 55.6602425,1.3635 55.5983922,1.012 C55.5103938,0.692 55.2619869,0.4655 54.9004392,0.3745 C53.796185,0.102 49.572262,1.2795 48.788322,2.082 C48.536898,2.343 48.4438712,2.6645 48.5203041,2.948 C48.6419933,3.2005 53.8776464,11.3875 53.8776464,11.3875 C54.6510266,12.635 55.2821008,12.443 55.4887713,12.3765 C55.6939333,12.315 56.3209847,12.1205 56.2495803,10.6665" id="Fill-7"></path>
                <path d="M2.64045472,28.674 C3.18503908,29.177 4.21788882,29.318 5.47350022,29.0645 C6.65016448,28.8325 7.37929405,28.3105 8.08328121,26.0915 L11.5785775,15.1655 C11.7606085,14.5855 11.745523,14.0825 11.5393554,13.7075 C11.3703984,13.407 11.0898093,13.2035 10.6945708,13.1 C10.072045,12.9295 9.2926306,12.9465 8.80235382,14.6115 L6.96746156,20.8095 C6.96746156,20.8095 3.2292897,13.7885 3.22677546,13.787 C2.99093976,13.3175 2.30052949,12.9835 1.59603948,13.261 C0.677336224,13.6065 0.370598958,14.4295 0.737677981,15.487 C0.737677981,15.487 5.28442938,24.686 5.29498919,24.713 C5.29498919,24.713 5.41768409,25.0395 5.41768409,25.093 C5.41768409,25.093 5.45992332,25.344 5.45992332,25.3515 C5.45036921,25.706 5.33119424,26.003 5.11848955,26.204 C4.90779625,26.3985 4.61664727,26.502 4.27772773,26.487 C4.27772773,26.487 3.56871209,26.4725 3.51289596,26.4725 C2.78527494,26.561 2.32718043,26.977 2.25326178,27.6205 C2.20247414,28.033 2.33572885,28.396 2.64045472,28.674" id="Fill-8"></path>
                <path d="M21.2248778,18.315 L16.3563037,18.315 C16.2245576,18.2205 16.1596902,18.058 16.2587512,17.5765 C16.3221101,17.322 16.3874803,17.0955 16.5820825,16.7755 C16.6434299,16.681 16.7103087,16.582 16.7726619,16.4835 C17.1291811,16.037 17.6119151,15.749 18.1605223,15.621 C19.8717139,15.2065 21.0639665,16.0705 21.2590715,17.546 C21.3510927,18.1885 21.2907509,18.315 21.2248778,18.315 L21.2248778,18.315 Z M23.5448508,17.4715 C23.3889679,15.8935 22.7770019,14.661 21.771306,13.906 C20.7017483,13.1 19.1881759,12.8415 17.39502,13.16 C15.1472896,13.5465 13.7981485,15.145 13.4893998,17.784 C13.1087439,20.94 13.6301972,23.3195 15.0039779,24.663 C16.0398447,25.682 17.570514,26.085 19.4345714,25.8355 C22.0906144,25.464 23.2848784,24.0125 23.2848784,23.098 C23.2848784,22.4235 22.8740516,21.892 22.2721426,21.8115 C21.9271888,21.7425 21.6365427,21.8115 20.9923945,22.384 C20.0646399,23.1875 18.989551,23.511 18.0356484,23.2715 C17.3095359,23.0875 16.7428262,22.59 16.4863737,21.9075 C16.4863737,21.9075 16.3717244,21.456 16.3792671,21.507 C16.3013257,21.1 16.2656235,20.698 16.5175503,20.533 L16.5849319,20.487 L22.419477,20.487 C22.95853,20.487 23.2305708,20.419 23.3889679,20.2485 C23.7082764,19.8945 23.6846425,18.8845 23.5448508,17.4715 L23.5448508,17.4715 Z" id="Fill-9"></path>
                <path d="M28.8358172,9.1235 C28.3721914,8.9365 27.8517437,8.988 27.3951577,9.258 C26.9556686,9.5165 26.7721291,9.9105 26.7721291,10.622 L26.7721291,24.457 C26.7721291,24.457 26.8490648,24.951 26.8561047,24.973 C26.9556686,25.317 27.2126239,25.61 27.5676346,25.7725 C27.9608617,25.9545 28.4194591,25.9505 28.8247545,25.76 C29.3336367,25.5435 29.6348426,25.038 29.6348426,24.411 L29.6348426,10.5515 C29.6348426,10.5515 29.5448328,9.8825 29.5448328,9.8695 C29.4633715,9.547 29.196862,9.2695 28.8358172,9.1235" id="Fill-10"></path>
                <path d="M39.1757125,23.1755 C37.2503076,23.1755 36.9425646,21.475 36.8812172,20.1925 C36.8787029,20.1885 36.8560748,19.44 36.8560748,19.44 C36.8560748,19.44 36.8787029,18.8835 36.8787029,18.8615 C37.0024035,16.641 37.4650237,15.7655 38.6431965,15.521 C39.4351821,15.3395 40.0391025,15.428 40.4926713,15.7905 C41.1745332,16.3365 41.4752363,17.492 41.4485854,19.4195 C41.4269629,21.676 41.0347415,23.1755 39.1757125,23.1755 L39.1757125,23.1755 Z M39.9889853,13.018 C38.6981745,12.757 37.5944232,12.9745 36.5319055,13.691 C36.5319055,13.691 36.4147419,13.787 36.3659656,13.814 L36.2734416,13.8625 L35.9807841,13.9905 L35.8998256,13.6665 L35.8304325,13.5505 L35.805793,13.4775 L35.7967417,13.4555 C35.7967417,13.4555 35.7273487,13.361 35.716286,13.3465 C35.412063,12.8745 34.5833696,12.6585 33.8351318,13.083 C33.4710698,13.288 33.2613822,13.5785 33.2613822,14.445 L33.2613822,28.0225 C33.2613822,28.766 33.4957094,29.2295 34.0086143,29.4725 C34.4410636,29.69 34.9288261,29.707 35.3466928,29.5275 C35.7027091,29.374 35.9626815,29.099 36.0602341,28.766 L36.1462211,28.185 L36.1462211,25.8355 L36.1220844,25.4565 L36.1311356,25.345 L36.1462211,25.2915 L36.2870185,24.8435 L36.7149421,25.1275 C36.7149421,25.1275 36.8220487,25.1965 36.8673051,25.2455 L36.9950284,25.33 C36.9970398,25.33 37.1443743,25.417 37.1443743,25.417 C37.1473914,25.417 37.2811489,25.482 37.2811489,25.482 C38.4291509,26.0195 39.9623344,25.958 41.1958204,25.3235 C42.7476093,24.5185 43.5154581,23.0875 43.6934663,20.6855 C44.0645681,15.886 42.9547827,13.5915 39.9889853,13.018 L39.9889853,13.018 Z" id="Fill-11"></path>
                <path d="M45.9748876,24.238 L46.1352961,24.238 C46.264528,24.238 46.3852115,24.232 46.3852115,24.086 C46.3852115,23.9575 46.2750878,23.9425 46.1750211,23.9425 L45.9748876,23.9425 L45.9748876,24.238 L45.9748876,24.238 Z M45.8451528,23.826 L46.1870894,23.826 C46.4088454,23.826 46.5139406,23.908 46.5139406,24.0935 C46.5139406,24.259 46.406834,24.329 46.268048,24.343 L46.5355631,24.7525 L46.3962742,24.7525 L46.1428388,24.3545 L45.9748876,24.3545 L45.9748876,24.7525 L45.8451528,24.7525 L45.8451528,23.826 L45.8451528,23.826 Z M46.1448502,24.965 C46.5229919,24.965 46.8241978,24.6705 46.8241978,24.279 C46.8241978,23.8965 46.5229919,23.602 46.1448502,23.602 C45.7677142,23.602 45.4660054,23.8965 45.4660054,24.288 C45.4660054,24.6705 45.7677142,24.965 46.1448502,24.965 L46.1448502,24.965 Z M46.1448502,23.4855 C46.585345,23.4855 46.9549383,23.8285 46.9549383,24.279 C46.9549383,24.7385 46.585345,25.0825 46.1448502,25.0825 C45.7053611,25.0825 45.3362707,24.7385 45.3362707,24.288 C45.3362707,23.8285 45.7053611,23.4855 46.1448502,23.4855 L46.1448502,23.4855 Z" id="Fill-12"></path>
            </g>
        </g>
    </g>
</svg>